<?xml version="1.0" standalone="no"?>
<!DOCTYPE svg PUBLIC "-//W3C//DTD SVG 20010904//EN"
 "http://www.w3.org/TR/2001/REC-SVG-20010904/DTD/svg10.dtd">
<svg version="1.0" xmlns="http://www.w3.org/2000/svg"
 width="260.000000pt" height="260.000000pt" viewBox="0 0 260.000000 260.000000"
 preserveAspectRatio="xMidYMid meet">
<metadata>
Created by potrace 1.11, written by Peter Selinger 2001-2013
</metadata>
<g transform="translate(0.000000,260.000000) scale(0.100000,-0.100000)"
fill="#000000" stroke="none">
<path d="M1169 2566 c-5 -5 -35 -11 -104 -22 -70 -10 -68 -1 -39 -149 4 -16 7
-36 7 -43 0 -10 11 -12 41 -8 82 11 147 23 152 29 7 6 -14 138 -27 175 -8 21
-20 28 -30 18z"/>
<path d="M1437 2563 c-2 -4 -7 -24 -11 -43 -3 -19 -8 -46 -11 -60 -15 -75 -17
-90 -12 -90 3 0 41 -7 84 -15 117 -22 108 -27 127 74 9 49 16 91 16 94 0 8
-28 16 -95 27 -35 6 -70 13 -78 16 -8 3 -17 2 -20 -3z"/>
<path d="M730 2418 c-19 -11 -53 -33 -75 -47 -22 -14 -41 -26 -43 -27 -2 -1
20 -40 49 -87 l52 -85 84 51 c45 28 83 54 83 57 0 3 -15 28 -32 55 -18 28 -39
63 -47 78 -17 32 -25 33 -71 5z"/>
<path d="M1827 2403 c-13 -21 -36 -58 -51 -81 -15 -24 -26 -45 -24 -47 2 -1
40 -25 85 -54 l82 -51 51 82 c27 45 50 85 50 88 0 6 -154 100 -164 100 -3 0
-16 -17 -29 -37z"/>
<path d="M370 2110 c-30 -39 -56 -74 -57 -78 -4 -13 148 -125 157 -116 5 5 33
40 63 78 l55 69 -74 58 c-40 33 -77 59 -82 59 -4 0 -32 -32 -62 -70z"/>
<path d="M2121 2123 c-42 -33 -70 -62 -67 -70 7 -17 108 -143 115 -143 8 0
145 110 149 119 1 4 -6 17 -15 28 -37 44 -49 59 -71 91 -13 17 -27 32 -31 32
-4 0 -40 -26 -80 -57z"/>
<path d="M1263 1930 c-29 -3 -59 -12 -67 -20 -7 -8 -130 -229 -272 -490 -142
-261 -275 -506 -296 -545 -60 -108 -71 -136 -59 -148 17 -17 139 -14 155 3 7
8 44 74 81 145 38 72 72 132 76 135 4 3 99 5 211 5 l203 0 3 -130 c2 -118 4
-132 23 -147 19 -16 51 -18 329 -18 272 0 309 2 314 16 11 28 6 103 -6 111 -7
4 -121 7 -253 8 l-240 0 -3 213 c-1 116 1 212 5 213 5 0 99 1 211 2 225 2 222
1 222 69 0 62 -9 65 -197 66 -92 0 -185 1 -205 1 l-38 1 0 189 0 190 241 -1
c152 0 245 4 251 10 15 15 15 99 1 113 -9 9 -96 13 -325 13 -172 1 -337 -1
-365 -4z m36 -455 l1 -325 -53 -1 c-132 -1 -291 1 -295 6 -2 2 5 19 16 37 10
18 43 78 72 133 29 55 60 114 70 130 10 17 42 77 73 135 82 155 111 210 114
210 1 0 2 -146 2 -325z"/>
<path d="M167 1748 c-14 -40 -28 -82 -31 -93 -5 -18 4 -24 77 -49 45 -16 87
-30 93 -33 14 -5 79 177 67 187 -8 7 -161 60 -174 60 -4 0 -18 -33 -32 -72z"/>
<path d="M2336 1788 c-44 -16 -81 -30 -83 -32 -3 -3 54 -177 61 -183 4 -4 176
54 184 62 8 8 -61 185 -72 184 -6 -1 -47 -15 -90 -31z"/>
<path d="M90 1305 l0 -100 100 0 100 0 0 100 0 101 -100 -1 -100 0 0 -100z"/>
<path d="M2357 1402 c-15 -3 -17 -18 -17 -102 l0 -98 100 0 100 0 0 99 c0 54
-3 99 -7 100 -29 3 -163 3 -176 1z"/>
<path d="M217 1010 c-43 -15 -80 -30 -83 -33 -9 -9 59 -188 70 -184 6 2 48 16
94 32 50 16 82 32 79 39 -2 6 -16 48 -31 94 -15 45 -33 82 -39 81 -7 0 -47
-13 -90 -29z"/>
<path d="M2280 944 c-18 -52 -31 -96 -29 -97 5 -4 162 -58 173 -60 13 -3 79
174 69 183 -4 4 -47 21 -94 38 l-86 31 -33 -95z"/>
<path d="M382 644 c-40 -30 -72 -58 -72 -62 0 -12 111 -147 121 -147 18 0 149
110 144 122 -6 18 -107 143 -115 143 -4 0 -39 -25 -78 -56z"/>
<path d="M2104 625 c-33 -42 -58 -78 -57 -81 1 -3 36 -32 77 -64 l74 -59 54
67 c30 37 57 72 61 78 6 10 -93 99 -139 127 -7 4 -36 -24 -70 -68z"/>
<path d="M696 417 c-7 -12 -30 -48 -50 -80 -20 -31 -36 -61 -36 -65 0 -13 162
-104 170 -96 11 13 100 157 97 160 -1 1 -39 24 -84 53 l-83 51 -14 -23z"/>
<path d="M1831 385 c-40 -24 -76 -46 -78 -49 -5 -5 22 -56 74 -138 l23 -38 85
52 84 52 -26 46 c-49 84 -73 120 -81 120 -4 0 -40 -20 -81 -45z"/>
<path d="M1026 238 c-3 -18 -8 -44 -11 -58 -14 -69 -16 -98 -8 -103 4 -3 29
-8 53 -12 25 -3 52 -8 60 -10 8 -2 29 -7 45 -9 26 -5 31 -2 33 17 1 13 8 56
17 97 8 40 14 74 12 76 -1 2 -18 6 -37 9 -19 3 -53 10 -75 15 -70 17 -82 14
-89 -22z"/>
<path d="M1472 252 c-46 -10 -82 -19 -79 -22 3 -3 8 -21 11 -40 10 -66 26
-143 30 -147 2 -2 23 1 47 6 24 5 60 12 80 15 52 8 71 17 65 32 -6 15 -27 129
-29 156 -2 22 -14 22 -125 0z"/>
</g>
</svg>
